
<svg version="1.0" xmlns="http://www.w3.org/2000/svg"
 width="452.000000pt" height="452.000000pt" viewBox="0 0 452.000000 452.000000">

<g transform="translate(0.000000,452.000000) scale(0.100000,-0.100000)"
fill="#9900ff" stroke="#49a7c1">
<path d="M541 3784 c-71 -36 -104 -86 -109 -169 -5 -70 10 -109 61 -163 55
-57 91 -62 454 -62 l323 0 0 -280 0 -280 955 0 955 0 0 65 0 65 -885 0 -885 0
0 75 0 75 1250 0 1251 0 25 -25 26 -26 -4 -182 c-3 -173 -4 -184 -28 -226 -21
-36 -109 -106 -517 -412 -270 -202 -507 -376 -525 -386 -31 -17 -83 -18 -753
-23 -803 -6 -751 -1 -814 -77 -38 -47 -51 -106 -51 -242 l0 -108 -38 -11 c-88
-27 -171 -104 -214 -199 -34 -73 -32 -198 4 -274 36 -79 89 -133 166 -171 60
-30 75 -33 157 -33 78 0 98 4 146 28 89 43 188 164 189 230 0 16 21 17 294 17
l293 0 22 -59 c28 -78 97 -151 176 -188 52 -24 72 -28 150 -28 78 0 97 4 147
28 73 36 150 119 177 192 90 240 -103 495 -356 472 -143 -14 -261 -107 -303
-239 l-12 -38 -294 0 c-247 0 -294 2 -294 14 0 31 -41 108 -82 152 -39 43
-143 104 -175 104 -10 0 -13 31 -13 124 0 107 3 127 19 147 l19 24 724 5 c709
5 724 5 769 26 62 29 1041 765 1072 806 69 92 72 105 75 332 3 176 1 216 -13
253 -22 57 -84 109 -147 122 -33 8 -452 11 -1283 11 l-1235 0 0 188 c0 103 -5
204 -11 225 -13 49 -63 105 -114 128 -36 17 -72 19 -366 19 l-325 0 -53 -26z
m708 -128 c16 -15 21 -31 21 -73 l0 -53 -330 0 -331 0 -24 25 c-14 13 -25 32
-25 42 0 25 27 62 54 73 11 5 154 8 317 7 276 -2 298 -3 318 -21z m179 -2401
c134 -57 169 -232 68 -343 -86 -96 -254 -82 -330 26 -34 48 -46 136 -27 195
14 42 72 104 115 123 42 18 129 17 174 -1z m1286 -8 c86 -49 131 -147 108
-235 -52 -194 -309 -226 -397 -49 -55 110 -13 233 100 291 46 24 141 21 189
-7z"/>
<path d="M1270 2615 l0 -65 775 0 775 0 0 65 0 65 -775 0 -775 0 0 -65z"/>
<path d="M1270 2330 l0 -70 565 0 565 0 0 70 0 70 -565 0 -565 0 0 -70z"/>
<path d="M1277 2113 c-4 -3 -7 -35 -7 -70 l0 -63 350 0 350 0 0 70 0 70 -343
0 c-189 0 -347 -3 -350 -7z"/>
</g>
</svg>
